<mxfile host="app.diagrams.net" agent="Mozilla/5.0 (Windows NT 10.0; Win64; x64) AppleWebKit/537.36 (KHTML, like Gecko) Chrome/139.0.0.0 Safari/537.36 Edg/139.0.0.0" version="28.1.1">
  <diagram name="第 1 页" id="JiUpI6hv0vBJvtDWEYGz">
    <mxGraphModel dx="869" dy="1060" grid="1" gridSize="10" guides="1" tooltips="1" connect="1" arrows="1" fold="1" page="1" pageScale="1" pageWidth="827" pageHeight="1169" math="0" shadow="0">
      <root>
        <mxCell id="0" />
        <mxCell id="1" parent="0" />
        <mxCell id="Blr8LIOK72sx-GVthxVn-6" style="edgeStyle=none;curved=1;rounded=0;orthogonalLoop=1;jettySize=auto;html=1;exitX=0.5;exitY=1;exitDx=0;exitDy=0;entryX=0.5;entryY=0;entryDx=0;entryDy=0;fontSize=12;startSize=8;endSize=8;" edge="1" parent="1" source="Blr8LIOK72sx-GVthxVn-1" target="Blr8LIOK72sx-GVthxVn-5">
          <mxGeometry relative="1" as="geometry" />
        </mxCell>
        <mxCell id="Blr8LIOK72sx-GVthxVn-1" value="前端 UI (&lt;span style=&quot;background-color: transparent; color: light-dark(rgb(0, 0, 0), rgb(255, 255, 255));&quot;&gt;JFX)&lt;/span&gt;" style="rounded=1;whiteSpace=wrap;html=1;" vertex="1" parent="1">
          <mxGeometry x="30" y="10" width="510" height="60" as="geometry" />
        </mxCell>
        <mxCell id="Blr8LIOK72sx-GVthxVn-14" style="edgeStyle=none;curved=1;rounded=0;orthogonalLoop=1;jettySize=auto;html=1;exitX=0.5;exitY=1;exitDx=0;exitDy=0;entryX=0.5;entryY=0;entryDx=0;entryDy=0;fontSize=12;startSize=8;endSize=8;" edge="1" parent="1" source="Blr8LIOK72sx-GVthxVn-5" target="Blr8LIOK72sx-GVthxVn-13">
          <mxGeometry relative="1" as="geometry" />
        </mxCell>
        <mxCell id="Blr8LIOK72sx-GVthxVn-5" value="" style="rounded=1;whiteSpace=wrap;html=1;" vertex="1" parent="1">
          <mxGeometry x="30" y="120" width="510" height="270" as="geometry" />
        </mxCell>
        <mxCell id="Blr8LIOK72sx-GVthxVn-7" value="统一身份认证" style="rounded=1;whiteSpace=wrap;html=1;" vertex="1" parent="1">
          <mxGeometry x="70" y="310" width="200" height="60" as="geometry" />
        </mxCell>
        <mxCell id="Blr8LIOK72sx-GVthxVn-8" value="银行系统" style="rounded=1;whiteSpace=wrap;html=1;" vertex="1" parent="1">
          <mxGeometry x="300" y="310" width="200" height="60" as="geometry" />
        </mxCell>
        <mxCell id="Blr8LIOK72sx-GVthxVn-9" value="学生学籍管理" style="rounded=1;whiteSpace=wrap;html=1;" vertex="1" parent="1">
          <mxGeometry x="70" y="150" width="80" height="140" as="geometry" />
        </mxCell>
        <mxCell id="Blr8LIOK72sx-GVthxVn-10" value="商店管理" style="rounded=1;whiteSpace=wrap;html=1;" vertex="1" parent="1">
          <mxGeometry x="420" y="150" width="80" height="140" as="geometry" />
        </mxCell>
        <mxCell id="Blr8LIOK72sx-GVthxVn-11" value="图书馆管理&lt;span style=&quot;color: rgba(0, 0, 0, 0); font-family: monospace; font-size: 0px; text-align: start; text-wrap-mode: nowrap;&quot;&gt;%3CmxGraphModel%3E%3Croot%3E%3CmxCell%20id%3D%220%22%2F%3E%3CmxCell%20id%3D%221%22%20parent%3D%220%22%2F%3E%3CmxCell%20id%3D%222%22%20value%3D%22%E5%95%86%E5%BA%97%E7%AE%A1%E7%90%86%22%20style%3D%22rounded%3D1%3BwhiteSpace%3Dwrap%3Bhtml%3D1%3B%22%20vertex%3D%221%22%20parent%3D%221%22%3E%3CmxGeometry%20x%3D%22520%22%20y%3D%22340%22%20width%3D%2280%22%20height%3D%22100%22%20as%3D%22geometry%22%2F%3E%3C%2FmxCell%3E%3C%2Froot%3E%3C%2FmxGraphModel%3E&lt;/span&gt;" style="rounded=1;whiteSpace=wrap;html=1;" vertex="1" parent="1">
          <mxGeometry x="310" y="150" width="80" height="140" as="geometry" />
        </mxCell>
        <mxCell id="Blr8LIOK72sx-GVthxVn-12" value="选课系统" style="rounded=1;whiteSpace=wrap;html=1;" vertex="1" parent="1">
          <mxGeometry x="180" y="150" width="80" height="140" as="geometry" />
        </mxCell>
        <mxCell id="Blr8LIOK72sx-GVthxVn-13" value="数据库封装" style="rounded=1;whiteSpace=wrap;html=1;" vertex="1" parent="1">
          <mxGeometry x="30" y="430" width="510" height="60" as="geometry" />
        </mxCell>
        <mxCell id="Blr8LIOK72sx-GVthxVn-16" value="" style="rounded=1;whiteSpace=wrap;html=1;" vertex="1" parent="1">
          <mxGeometry x="144" y="630" width="510" height="480" as="geometry" />
        </mxCell>
        <mxCell id="Blr8LIOK72sx-GVthxVn-17" value="统一身份认证" style="rounded=1;whiteSpace=wrap;html=1;" vertex="1" parent="1">
          <mxGeometry x="184" y="1020" width="140" height="60" as="geometry" />
        </mxCell>
        <mxCell id="Blr8LIOK72sx-GVthxVn-18" value="银行系统" style="rounded=1;whiteSpace=wrap;html=1;" vertex="1" parent="1">
          <mxGeometry x="474" y="1020" width="140" height="60" as="geometry" />
        </mxCell>
        <mxCell id="Blr8LIOK72sx-GVthxVn-19" value="学生学籍管理" style="rounded=1;whiteSpace=wrap;html=1;" vertex="1" parent="1">
          <mxGeometry x="184" y="660" width="80" height="140" as="geometry" />
        </mxCell>
        <mxCell id="Blr8LIOK72sx-GVthxVn-52" style="edgeStyle=none;curved=1;rounded=0;orthogonalLoop=1;jettySize=auto;html=1;entryX=0.5;entryY=0;entryDx=0;entryDy=0;fontSize=12;startSize=8;endSize=8;exitX=0.25;exitY=1;exitDx=0;exitDy=0;" edge="1" parent="1" source="Blr8LIOK72sx-GVthxVn-20" target="Blr8LIOK72sx-GVthxVn-18">
          <mxGeometry relative="1" as="geometry" />
        </mxCell>
        <mxCell id="Blr8LIOK72sx-GVthxVn-53" value="申请转账" style="edgeLabel;html=1;align=center;verticalAlign=middle;resizable=0;points=[];fontSize=12;" vertex="1" connectable="0" parent="Blr8LIOK72sx-GVthxVn-52">
          <mxGeometry x="0.5949" y="4" relative="1" as="geometry">
            <mxPoint y="1" as="offset" />
          </mxGeometry>
        </mxCell>
        <mxCell id="Blr8LIOK72sx-GVthxVn-20" value="商店管理" style="rounded=1;whiteSpace=wrap;html=1;" vertex="1" parent="1">
          <mxGeometry x="534" y="660" width="80" height="140" as="geometry" />
        </mxCell>
        <mxCell id="Blr8LIOK72sx-GVthxVn-21" value="图书馆管理&lt;span style=&quot;color: rgba(0, 0, 0, 0); font-family: monospace; font-size: 0px; text-align: start; text-wrap-mode: nowrap;&quot;&gt;%3CmxGraphModel%3E%3Croot%3E%3CmxCell%20id%3D%220%22%2F%3E%3CmxCell%20id%3D%221%22%20parent%3D%220%22%2F%3E%3CmxCell%20id%3D%222%22%20value%3D%22%E5%95%86%E5%BA%97%E7%AE%A1%E7%90%86%22%20style%3D%22rounded%3D1%3BwhiteSpace%3Dwrap%3Bhtml%3D1%3B%22%20vertex%3D%221%22%20parent%3D%221%22%3E%3CmxGeometry%20x%3D%22520%22%20y%3D%22340%22%20width%3D%2280%22%20height%3D%22100%22%20as%3D%22geometry%22%2F%3E%3C%2FmxCell%3E%3C%2Froot%3E%3C%2FmxGraphModel%3E&lt;/span&gt;" style="rounded=1;whiteSpace=wrap;html=1;" vertex="1" parent="1">
          <mxGeometry x="424" y="660" width="80" height="140" as="geometry" />
        </mxCell>
        <mxCell id="Blr8LIOK72sx-GVthxVn-22" value="选课系统" style="rounded=1;whiteSpace=wrap;html=1;" vertex="1" parent="1">
          <mxGeometry x="294" y="660" width="80" height="140" as="geometry" />
        </mxCell>
        <mxCell id="Blr8LIOK72sx-GVthxVn-25" value="" style="endArrow=classic;startArrow=classic;html=1;rounded=0;fontSize=12;startSize=8;endSize=8;curved=1;entryX=0.5;entryY=1;entryDx=0;entryDy=0;exitX=0.5;exitY=0;exitDx=0;exitDy=0;" edge="1" parent="1" source="Blr8LIOK72sx-GVthxVn-17" target="Blr8LIOK72sx-GVthxVn-19">
          <mxGeometry width="50" height="50" relative="1" as="geometry">
            <mxPoint x="344" y="720" as="sourcePoint" />
            <mxPoint x="394" y="670" as="targetPoint" />
          </mxGeometry>
        </mxCell>
        <mxCell id="Blr8LIOK72sx-GVthxVn-26" value="身份认证" style="edgeLabel;html=1;align=center;verticalAlign=middle;resizable=0;points=[];fontSize=12;" vertex="1" connectable="0" parent="Blr8LIOK72sx-GVthxVn-25">
          <mxGeometry x="0.1109" y="-3" relative="1" as="geometry">
            <mxPoint y="23" as="offset" />
          </mxGeometry>
        </mxCell>
        <mxCell id="Blr8LIOK72sx-GVthxVn-27" value="" style="endArrow=classic;startArrow=classic;html=1;rounded=0;fontSize=12;startSize=8;endSize=8;curved=1;entryX=0.5;entryY=1;entryDx=0;entryDy=0;exitX=0.5;exitY=0;exitDx=0;exitDy=0;" edge="1" parent="1" source="Blr8LIOK72sx-GVthxVn-17" target="Blr8LIOK72sx-GVthxVn-22">
          <mxGeometry width="50" height="50" relative="1" as="geometry">
            <mxPoint x="324" y="1190" as="sourcePoint" />
            <mxPoint x="314" y="910" as="targetPoint" />
          </mxGeometry>
        </mxCell>
        <mxCell id="Blr8LIOK72sx-GVthxVn-28" value="身份认证" style="edgeLabel;html=1;align=center;verticalAlign=middle;resizable=0;points=[];fontSize=12;" vertex="1" connectable="0" parent="Blr8LIOK72sx-GVthxVn-27">
          <mxGeometry x="0.1109" y="-3" relative="1" as="geometry">
            <mxPoint x="-17" y="41" as="offset" />
          </mxGeometry>
        </mxCell>
        <mxCell id="Blr8LIOK72sx-GVthxVn-29" value="" style="endArrow=classic;startArrow=classic;html=1;rounded=0;fontSize=12;startSize=8;endSize=8;curved=1;entryX=0.5;entryY=1;entryDx=0;entryDy=0;exitX=0.5;exitY=0;exitDx=0;exitDy=0;" edge="1" parent="1" source="Blr8LIOK72sx-GVthxVn-17" target="Blr8LIOK72sx-GVthxVn-21">
          <mxGeometry width="50" height="50" relative="1" as="geometry">
            <mxPoint x="464" y="1070" as="sourcePoint" />
            <mxPoint x="454" y="790" as="targetPoint" />
          </mxGeometry>
        </mxCell>
        <mxCell id="Blr8LIOK72sx-GVthxVn-30" value="身份认证" style="edgeLabel;html=1;align=center;verticalAlign=middle;resizable=0;points=[];fontSize=12;" vertex="1" connectable="0" parent="Blr8LIOK72sx-GVthxVn-29">
          <mxGeometry x="0.1109" y="-3" relative="1" as="geometry">
            <mxPoint x="-29" y="20" as="offset" />
          </mxGeometry>
        </mxCell>
        <mxCell id="Blr8LIOK72sx-GVthxVn-31" value="" style="endArrow=classic;startArrow=classic;html=1;rounded=0;fontSize=12;startSize=8;endSize=8;curved=1;entryX=0.5;entryY=1;entryDx=0;entryDy=0;exitX=0.5;exitY=0;exitDx=0;exitDy=0;" edge="1" parent="1" source="Blr8LIOK72sx-GVthxVn-17" target="Blr8LIOK72sx-GVthxVn-20">
          <mxGeometry width="50" height="50" relative="1" as="geometry">
            <mxPoint x="534" y="1140" as="sourcePoint" />
            <mxPoint x="524" y="860" as="targetPoint" />
          </mxGeometry>
        </mxCell>
        <mxCell id="Blr8LIOK72sx-GVthxVn-32" value="身份认证" style="edgeLabel;html=1;align=center;verticalAlign=middle;resizable=0;points=[];fontSize=12;" vertex="1" connectable="0" parent="Blr8LIOK72sx-GVthxVn-31">
          <mxGeometry x="0.1109" y="-3" relative="1" as="geometry">
            <mxPoint x="-70" y="50" as="offset" />
          </mxGeometry>
        </mxCell>
        <mxCell id="Blr8LIOK72sx-GVthxVn-33" value="" style="endArrow=classic;startArrow=classic;html=1;rounded=0;fontSize=12;startSize=8;endSize=8;curved=1;entryX=0;entryY=0.5;entryDx=0;entryDy=0;exitX=1;exitY=0.5;exitDx=0;exitDy=0;" edge="1" parent="1" source="Blr8LIOK72sx-GVthxVn-17" target="Blr8LIOK72sx-GVthxVn-18">
          <mxGeometry width="50" height="50" relative="1" as="geometry">
            <mxPoint x="424" y="1190" as="sourcePoint" />
            <mxPoint x="714" y="910" as="targetPoint" />
          </mxGeometry>
        </mxCell>
        <mxCell id="Blr8LIOK72sx-GVthxVn-34" value="身份认证" style="edgeLabel;html=1;align=center;verticalAlign=middle;resizable=0;points=[];fontSize=12;" vertex="1" connectable="0" parent="Blr8LIOK72sx-GVthxVn-33">
          <mxGeometry x="0.1109" y="-3" relative="1" as="geometry">
            <mxPoint y="1" as="offset" />
          </mxGeometry>
        </mxCell>
        <mxCell id="Blr8LIOK72sx-GVthxVn-36" style="edgeStyle=none;curved=1;rounded=0;orthogonalLoop=1;jettySize=auto;html=1;entryX=1;entryY=0.5;entryDx=0;entryDy=0;fontSize=12;startSize=8;endSize=8;" edge="1" parent="1" target="Blr8LIOK72sx-GVthxVn-18">
          <mxGeometry relative="1" as="geometry">
            <mxPoint x="734" y="1090" as="sourcePoint" />
          </mxGeometry>
        </mxCell>
        <mxCell id="Blr8LIOK72sx-GVthxVn-40" value="存取查（all）" style="edgeLabel;html=1;align=center;verticalAlign=middle;resizable=0;points=[];fontSize=12;" vertex="1" connectable="0" parent="Blr8LIOK72sx-GVthxVn-36">
          <mxGeometry x="-0.0212" y="-1" relative="1" as="geometry">
            <mxPoint x="19" y="6" as="offset" />
          </mxGeometry>
        </mxCell>
        <mxCell id="Blr8LIOK72sx-GVthxVn-44" style="edgeStyle=none;curved=1;rounded=0;orthogonalLoop=1;jettySize=auto;html=1;exitX=0;exitY=0.5;exitDx=0;exitDy=0;entryX=0.75;entryY=1;entryDx=0;entryDy=0;fontSize=12;startSize=8;endSize=8;" edge="1" parent="1" source="Blr8LIOK72sx-GVthxVn-35" target="Blr8LIOK72sx-GVthxVn-19">
          <mxGeometry relative="1" as="geometry" />
        </mxCell>
        <mxCell id="Blr8LIOK72sx-GVthxVn-45" value="查改" style="edgeLabel;html=1;align=center;verticalAlign=middle;resizable=0;points=[];fontSize=12;" vertex="1" connectable="0" parent="Blr8LIOK72sx-GVthxVn-44">
          <mxGeometry x="-0.2949" y="4" relative="1" as="geometry">
            <mxPoint x="-40" y="-23" as="offset" />
          </mxGeometry>
        </mxCell>
        <mxCell id="Blr8LIOK72sx-GVthxVn-46" style="edgeStyle=none;curved=1;rounded=0;orthogonalLoop=1;jettySize=auto;html=1;exitX=0;exitY=0;exitDx=0;exitDy=0;entryX=0.75;entryY=1;entryDx=0;entryDy=0;fontSize=12;startSize=8;endSize=8;" edge="1" parent="1" source="Blr8LIOK72sx-GVthxVn-35" target="Blr8LIOK72sx-GVthxVn-22">
          <mxGeometry relative="1" as="geometry" />
        </mxCell>
        <mxCell id="Blr8LIOK72sx-GVthxVn-47" value="选课，查课表" style="edgeLabel;html=1;align=center;verticalAlign=middle;resizable=0;points=[];fontSize=12;" vertex="1" connectable="0" parent="Blr8LIOK72sx-GVthxVn-46">
          <mxGeometry x="-0.3168" y="-1" relative="1" as="geometry">
            <mxPoint x="24" y="8" as="offset" />
          </mxGeometry>
        </mxCell>
        <mxCell id="Blr8LIOK72sx-GVthxVn-50" style="edgeStyle=none;curved=1;rounded=0;orthogonalLoop=1;jettySize=auto;html=1;entryX=0.5;entryY=0;entryDx=0;entryDy=0;fontSize=12;startSize=8;endSize=8;" edge="1" parent="1" target="Blr8LIOK72sx-GVthxVn-20">
          <mxGeometry relative="1" as="geometry">
            <mxPoint x="674" y="570" as="sourcePoint" />
          </mxGeometry>
        </mxCell>
        <mxCell id="Blr8LIOK72sx-GVthxVn-51" value="查买（all）" style="edgeLabel;html=1;align=center;verticalAlign=middle;resizable=0;points=[];fontSize=12;" vertex="1" connectable="0" parent="Blr8LIOK72sx-GVthxVn-50">
          <mxGeometry x="-0.057" y="-4" relative="1" as="geometry">
            <mxPoint x="9" y="-1" as="offset" />
          </mxGeometry>
        </mxCell>
        <mxCell id="Blr8LIOK72sx-GVthxVn-35" value="学生" style="ellipse;whiteSpace=wrap;html=1;" vertex="1" parent="1">
          <mxGeometry x="694" y="960" width="120" height="80" as="geometry" />
        </mxCell>
        <mxCell id="Blr8LIOK72sx-GVthxVn-42" style="edgeStyle=none;curved=1;rounded=0;orthogonalLoop=1;jettySize=auto;html=1;exitX=0.5;exitY=1;exitDx=0;exitDy=0;entryX=0.5;entryY=0;entryDx=0;entryDy=0;fontSize=12;startSize=8;endSize=8;" edge="1" parent="1" source="Blr8LIOK72sx-GVthxVn-41" target="Blr8LIOK72sx-GVthxVn-19">
          <mxGeometry relative="1" as="geometry" />
        </mxCell>
        <mxCell id="Blr8LIOK72sx-GVthxVn-43" value="审核学生修改信息" style="edgeLabel;html=1;align=center;verticalAlign=middle;resizable=0;points=[];fontSize=12;" vertex="1" connectable="0" parent="Blr8LIOK72sx-GVthxVn-42">
          <mxGeometry x="-0.5324" y="2" relative="1" as="geometry">
            <mxPoint x="-30" y="6" as="offset" />
          </mxGeometry>
        </mxCell>
        <mxCell id="Blr8LIOK72sx-GVthxVn-54" style="edgeStyle=none;curved=1;rounded=0;orthogonalLoop=1;jettySize=auto;html=1;exitX=1;exitY=1;exitDx=0;exitDy=0;entryX=0.25;entryY=0;entryDx=0;entryDy=0;fontSize=12;startSize=8;endSize=8;" edge="1" parent="1" source="Blr8LIOK72sx-GVthxVn-41" target="Blr8LIOK72sx-GVthxVn-22">
          <mxGeometry relative="1" as="geometry" />
        </mxCell>
        <mxCell id="Blr8LIOK72sx-GVthxVn-55" value="排课" style="edgeLabel;html=1;align=center;verticalAlign=middle;resizable=0;points=[];fontSize=12;" vertex="1" connectable="0" parent="Blr8LIOK72sx-GVthxVn-54">
          <mxGeometry x="-0.4519" y="2" relative="1" as="geometry">
            <mxPoint as="offset" />
          </mxGeometry>
        </mxCell>
        <mxCell id="Blr8LIOK72sx-GVthxVn-41" value="教务" style="ellipse;whiteSpace=wrap;html=1;" vertex="1" parent="1">
          <mxGeometry x="154" y="520" width="120" height="80" as="geometry" />
        </mxCell>
        <mxCell id="Blr8LIOK72sx-GVthxVn-57" style="edgeStyle=none;curved=1;rounded=0;orthogonalLoop=1;jettySize=auto;html=1;exitX=0.5;exitY=1;exitDx=0;exitDy=0;entryX=0.5;entryY=0;entryDx=0;entryDy=0;fontSize=12;startSize=8;endSize=8;" edge="1" parent="1" source="Blr8LIOK72sx-GVthxVn-56" target="Blr8LIOK72sx-GVthxVn-22">
          <mxGeometry relative="1" as="geometry" />
        </mxCell>
        <mxCell id="Blr8LIOK72sx-GVthxVn-58" value="查课表" style="edgeLabel;html=1;align=center;verticalAlign=middle;resizable=0;points=[];fontSize=12;" vertex="1" connectable="0" parent="Blr8LIOK72sx-GVthxVn-57">
          <mxGeometry x="-0.3975" y="-2" relative="1" as="geometry">
            <mxPoint as="offset" />
          </mxGeometry>
        </mxCell>
        <mxCell id="Blr8LIOK72sx-GVthxVn-59" style="edgeStyle=none;curved=1;rounded=0;orthogonalLoop=1;jettySize=auto;html=1;entryX=0.75;entryY=0;entryDx=0;entryDy=0;fontSize=12;startSize=8;endSize=8;" edge="1" parent="1" target="Blr8LIOK72sx-GVthxVn-21">
          <mxGeometry relative="1" as="geometry">
            <mxPoint x="604" y="550" as="sourcePoint" />
          </mxGeometry>
        </mxCell>
        <mxCell id="Blr8LIOK72sx-GVthxVn-60" value="查借还（all）" style="edgeLabel;html=1;align=center;verticalAlign=middle;resizable=0;points=[];fontSize=12;" vertex="1" connectable="0" parent="Blr8LIOK72sx-GVthxVn-59">
          <mxGeometry x="-0.4718" y="1" relative="1" as="geometry">
            <mxPoint x="-9" y="21" as="offset" />
          </mxGeometry>
        </mxCell>
        <mxCell id="Blr8LIOK72sx-GVthxVn-56" value="教师" style="ellipse;whiteSpace=wrap;html=1;" vertex="1" parent="1">
          <mxGeometry x="294" y="520" width="120" height="80" as="geometry" />
        </mxCell>
        <mxCell id="Blr8LIOK72sx-GVthxVn-66" style="edgeStyle=none;curved=1;rounded=0;orthogonalLoop=1;jettySize=auto;html=1;exitX=0.5;exitY=1;exitDx=0;exitDy=0;entryX=0.5;entryY=0;entryDx=0;entryDy=0;fontSize=12;startSize=8;endSize=8;" edge="1" parent="1" source="Blr8LIOK72sx-GVthxVn-63" target="Blr8LIOK72sx-GVthxVn-21">
          <mxGeometry relative="1" as="geometry" />
        </mxCell>
        <mxCell id="Blr8LIOK72sx-GVthxVn-67" value="管理图书" style="edgeLabel;html=1;align=center;verticalAlign=middle;resizable=0;points=[];fontSize=12;" vertex="1" connectable="0" parent="Blr8LIOK72sx-GVthxVn-66">
          <mxGeometry x="-0.4287" y="-1" relative="1" as="geometry">
            <mxPoint y="1" as="offset" />
          </mxGeometry>
        </mxCell>
        <mxCell id="Blr8LIOK72sx-GVthxVn-63" value="图书管理员" style="ellipse;whiteSpace=wrap;html=1;" vertex="1" parent="1">
          <mxGeometry x="424" y="520" width="120" height="80" as="geometry" />
        </mxCell>
        <mxCell id="Blr8LIOK72sx-GVthxVn-69" style="edgeStyle=none;curved=1;rounded=0;orthogonalLoop=1;jettySize=auto;html=1;exitX=0;exitY=0.5;exitDx=0;exitDy=0;entryX=1;entryY=0.5;entryDx=0;entryDy=0;fontSize=12;startSize=8;endSize=8;" edge="1" parent="1" source="Blr8LIOK72sx-GVthxVn-68" target="Blr8LIOK72sx-GVthxVn-20">
          <mxGeometry relative="1" as="geometry" />
        </mxCell>
        <mxCell id="Blr8LIOK72sx-GVthxVn-70" value="管理商品" style="edgeLabel;html=1;align=center;verticalAlign=middle;resizable=0;points=[];fontSize=12;" vertex="1" connectable="0" parent="Blr8LIOK72sx-GVthxVn-69">
          <mxGeometry x="0.2583" y="1" relative="1" as="geometry">
            <mxPoint x="17" as="offset" />
          </mxGeometry>
        </mxCell>
        <mxCell id="Blr8LIOK72sx-GVthxVn-68" value="商店管理员" style="ellipse;whiteSpace=wrap;html=1;" vertex="1" parent="1">
          <mxGeometry x="694" y="690" width="120" height="80" as="geometry" />
        </mxCell>
        <mxCell id="Blr8LIOK72sx-GVthxVn-72" style="edgeStyle=none;curved=1;rounded=0;orthogonalLoop=1;jettySize=auto;html=1;exitX=1;exitY=1;exitDx=0;exitDy=0;entryX=0;entryY=0.5;entryDx=0;entryDy=0;fontSize=12;startSize=8;endSize=8;" edge="1" parent="1" source="Blr8LIOK72sx-GVthxVn-71" target="Blr8LIOK72sx-GVthxVn-17">
          <mxGeometry relative="1" as="geometry" />
        </mxCell>
        <mxCell id="Blr8LIOK72sx-GVthxVn-73" value="分配账号权限" style="edgeLabel;html=1;align=center;verticalAlign=middle;resizable=0;points=[];fontSize=12;" vertex="1" connectable="0" parent="Blr8LIOK72sx-GVthxVn-72">
          <mxGeometry x="0.1019" y="-1" relative="1" as="geometry">
            <mxPoint x="-10" y="-9" as="offset" />
          </mxGeometry>
        </mxCell>
        <mxCell id="Blr8LIOK72sx-GVthxVn-71" value="系统管理员" style="ellipse;whiteSpace=wrap;html=1;" vertex="1" parent="1">
          <mxGeometry x="10" y="920" width="120" height="80" as="geometry" />
        </mxCell>
      </root>
    </mxGraphModel>
  </diagram>
</mxfile>
